<?xml version="1.0" standalone="no"?>
<!DOCTYPE svg PUBLIC "-//W3C//DTD SVG 20010904//EN"
 "http://www.w3.org/TR/2001/REC-SVG-20010904/DTD/svg10.dtd">
<svg version="1.0" xmlns="http://www.w3.org/2000/svg"
 width="1254.000000pt" height="1254.000000pt" viewBox="0 0 1254.000000 1254.000000"
 preserveAspectRatio="xMidYMid meet">

<g transform="translate(0.000000,1254.000000) scale(0.100000,-0.100000)"
fill="#000000" stroke="none">
<path d="M0 6270 l0 -6270 6270 0 6270 0 0 6270 0 6270 -6270 0 -6270 0 0
-6270z m10825 6200 c3 -5 1 -10 -4 -10 -6 0 -11 5 -11 10 0 6 2 10 4 10 3 0 8
-4 11 -10z m-9170 -20 c-3 -5 -12 -10 -18 -10 -7 0 -6 4 3 10 19 12 23 12 15
0z m9245 0 c8 -5 11 -10 5 -10 -5 0 -17 5 -25 10 -8 5 -10 10 -5 10 6 0 17 -5
25 -10z m70 -20 c13 -8 13 -10 -2 -10 -9 0 -20 5 -23 10 -8 13 5 13 25 0z
m-9450 -30 c-8 -5 -19 -10 -25 -10 -5 0 -3 5 5 10 8 5 20 10 25 10 6 0 3 -5
-5 -10z m9524 1 c4 -5 -3 -7 -14 -4 -23 6 -26 13 -6 13 8 0 17 -4 20 -9z
m-9624 -41 c-20 -13 -33 -13 -25 0 3 6 14 10 23 10 15 0 15 -2 2 -10z m9768
-15 c23 -9 42 -21 42 -25 0 -8 -99 35 -110 48 -6 6 5 2 68 -23z m-9809 1 c-2
-2 -15 -9 -29 -15 -24 -11 -24 -11 -6 3 16 13 49 24 35 12z m9958 -82 c-7 -7
-57 18 -57 28 0 5 14 1 31 -7 17 -9 29 -19 26 -21z m-10087 21 c0 -2 -10 -10
-22 -16 -21 -11 -22 -11 -9 4 13 16 31 23 31 12z m-70 -40 c-7 -8 -18 -15 -24
-15 -6 0 -2 7 8 15 25 19 32 19 16 0z m10219 -11 c14 -12 -19 -1 -35 12 -18
14 -18 14 6 3 14 -6 27 -13 29 -15z m-10299 -32 c0 -5 -12 -14 -27 -21 l-28
-12 25 21 c29 22 30 23 30 12z m10370 -12 c8 -5 11 -10 5 -10 -5 0 -17 5 -25
10 -8 5 -10 10 -5 10 6 0 17 -5 25 -10z m76 -51 c19 -22 19 -22 -3 -8 -13 8
-23 17 -23 21 0 12 6 9 26 -13z m-10586 -33 c0 -3 -4 -8 -10 -11 -5 -3 -10 -1
-10 4 0 6 5 11 10 11 6 0 10 -2 10 -4z m10671 -33 c10 -12 5 -11 -18 6 -18 12
-33 24 -33 27 0 9 37 -15 51 -33z m-10711 2 c-7 -8 -17 -15 -23 -15 -6 0 -2 7
9 15 25 19 30 19 14 0z m-60 -50 c-7 -8 -18 -15 -24 -15 -6 0 -2 7 8 15 25 19
32 19 16 0z m10856 -16 c4 -8 1 -8 -14 0 -12 6 -24 16 -28 22 -4 8 -1 8 14 0
12 -6 24 -16 28 -22z m-10936 -54 c-7 -9 -27 -25 -44 -37 -28 -19 -27 -17 8
20 22 23 42 40 44 37 3 -2 -1 -12 -8 -20z m11015 -15 c16 -16 24 -30 19 -30
-6 0 -23 14 -39 30 -16 17 -24 30 -19 30 6 0 23 -13 39 -30z m156 -162 l33
-43 -37 34 c-33 31 -46 51 -33 51 2 0 19 -19 37 -42z m-11360 -11 c-19 -18
-30 -25 -26 -17 13 25 48 60 54 55 3 -3 -10 -20 -28 -38z m-51 -60 c0 -2 -10
-12 -22 -23 l-23 -19 19 23 c18 21 26 27 26 19z m11491 -24 c13 -16 12 -17 -3
-4 -10 7 -18 15 -18 17 0 8 8 3 21 -13z m-11557 -58 c-4 -8 -11 -15 -16 -15
-6 0 -5 6 2 15 7 8 14 15 16 15 2 0 1 -7 -2 -15z m11611 -5 c3 -5 1 -10 -4
-10 -6 0 -11 5 -11 10 0 6 2 10 4 10 3 0 8 -4 11 -10z m-11655 -60 c0 -5 -5
-10 -11 -10 -5 0 -7 5 -4 10 3 6 8 10 11 10 2 0 4 -4 4 -10z m11714 -26 c3 -8
2 -12 -4 -9 -6 3 -10 10 -10 16 0 14 7 11 14 -7z m-11761 -39 c-3 -9 -8 -14
-10 -11 -3 3 -2 9 2 15 9 16 15 13 8 -4z m11895 -190 c-3 -3 -9 2 -12 12 -6
14 -5 15 5 6 7 -7 10 -15 7 -18z m-12016 -17 c-7 -7 -12 -8 -12 -2 0 14 12 26
19 19 2 -3 -1 -11 -7 -17z m12076 -103 c-3 -3 -9 2 -12 12 -6 14 -5 15 5 6 7
-7 10 -15 7 -18z m-12143 -35 c-9 -16 -17 -30 -19 -30 -3 0 1 14 7 30 6 17 15
30 19 30 5 0 2 -13 -7 -30z m12175 -35 c0 -5 -5 -3 -10 5 -5 8 -10 20 -10 25
0 6 5 3 10 -5 5 -8 10 -19 10 -25z m30 -60 c0 -8 -2 -15 -4 -15 -2 0 -6 7 -10
15 -3 8 -1 15 4 15 6 0 10 -7 10 -15z m24 -71 c3 -8 2 -12 -4 -9 -6 3 -10 10
-10 16 0 14 7 11 14 -7z m-12302 -16 c-7 -7 -12 -8 -12 -2 0 14 12 26 19 19 2
-3 -1 -11 -7 -17z m-45 -160 c-3 -7 -5 -2 -5 12 0 14 2 19 5 13 2 -7 2 -19 0
-25z m-14 -58 c-3 -12 -8 -19 -11 -16 -5 6 5 36 12 36 2 0 2 -9 -1 -20z m-16
-52 c-3 -8 -6 -5 -6 6 -1 11 2 17 5 13 3 -3 4 -12 1 -19z m8773 -1332 c0 -2
-47 -84 -105 -182 -58 -99 -163 -279 -233 -401 l-127 -223 -1066 0 c-1154 0
-1151 0 -1314 -55 -39 -13 -136 -53 -215 -89 -78 -37 -144 -65 -146 -63 -2 2
10 39 27 83 38 97 48 193 26 246 -53 127 -435 225 -620 159 -69 -24 -164 -89
-286 -194 -72 -63 -95 -77 -112 -72 -19 6 -14 15 57 87 378 384 743 611 1104
687 92 19 137 20 1553 20 801 1 1457 -1 1457 -3z m-3421 -667 c47 -24 94 -57
105 -72 l21 -28 -34 -122 c-18 -67 -36 -151 -38 -187 -4 -57 -9 -69 -44 -108
-22 -26 -39 -55 -39 -69 0 -23 -43 -73 -62 -73 -5 0 -25 7 -45 15 -64 27 -117
23 -164 -10 -52 -37 -58 -51 -24 -59 14 -4 43 -23 65 -42 46 -42 70 -107 70
-190 0 -49 3 -56 49 -106 56 -62 88 -119 97 -178 l7 -43 15 29 c23 46 44 65
99 91 49 23 97 69 184 174 36 44 36 46 32 119 -3 70 -1 80 34 150 47 93 63
100 63 29 l0 -53 38 80 c25 50 54 93 82 117 38 35 46 38 79 32 20 -4 36 -8 37
-8 0 -1 8 -14 17 -29 21 -34 21 -33 -5 -58 -12 -11 -18 -20 -13 -20 5 0 19 10
32 22 27 26 29 17 12 -61 -7 -34 -24 -67 -50 -98 -22 -27 -55 -81 -74 -121
-23 -48 -53 -90 -89 -125 -39 -37 -65 -74 -90 -129 -19 -43 -52 -104 -73 -135
-45 -70 -216 -249 -257 -270 -53 -27 -106 -13 -193 53 -149 114 -207 186 -224
278 -6 32 -3 46 17 75 23 35 50 129 40 139 -3 2 -10 -8 -16 -24 -25 -64 -145
-178 -234 -220 -20 -10 -36 -22 -36 -27 0 -23 -54 -78 -117 -120 -38 -25 -110
-82 -161 -126 -52 -45 -106 -84 -120 -88 -30 -7 -155 12 -215 33 -22 8 -42 12
-45 9 -7 -7 70 -38 211 -86 308 -105 648 -325 745 -484 31 -50 37 -69 37 -116
0 -80 -34 -126 -143 -196 -48 -30 -143 -91 -212 -134 -69 -44 -224 -129 -345
-189 -121 -60 -242 -127 -270 -149 -27 -23 -60 -46 -72 -52 -19 -10 -22 -18
-17 -49 4 -26 0 -51 -15 -85 -26 -59 -27 -136 -4 -227 14 -54 15 -69 4 -81
-11 -14 -18 -14 -56 -3 -57 18 -110 60 -140 111 -39 66 -67 155 -61 195 4 23
-1 48 -14 75 -31 64 -35 124 -11 162 18 29 25 32 63 31 32 -2 64 8 123 36 73
35 98 57 285 241 115 113 232 220 267 243 61 38 153 68 233 74 34 3 32 4 -45
42 -123 59 -147 65 -245 53 -107 -12 -322 4 -435 33 -195 50 -323 157 -326
271 0 28 -2 31 -9 13 -11 -28 5 -109 30 -150 36 -57 120 -124 211 -167 l87
-41 -66 -73 c-76 -85 -184 -170 -317 -248 -72 -43 -102 -67 -131 -108 -64 -89
-116 -138 -179 -167 -35 -15 -90 -54 -131 -92 -88 -81 -143 -119 -247 -170
-160 -79 -200 -108 -350 -257 -123 -121 -147 -150 -142 -168 8 -34 -18 -87
-73 -146 -63 -68 -86 -122 -77 -176 6 -38 5 -42 -21 -51 -39 -15 -79 3 -98 45
-19 40 -21 155 -4 219 10 37 9 53 -6 104 -31 102 -9 139 109 181 121 42 174
73 253 146 89 82 148 165 192 268 64 149 150 235 285 286 160 60 210 102 275
230 78 157 169 263 297 349 l53 35 -6 66 c-12 126 37 250 141 357 64 65 126
102 218 129 47 14 57 20 57 39 0 35 25 115 64 202 29 65 40 109 56 222 21 156
47 244 91 313 39 62 64 68 107 26 39 -37 67 -120 78 -228 8 -71 8 -72 15 -34
11 57 10 144 -1 185 -5 20 -23 57 -39 83 -28 42 -43 53 -173 118 -151 75 -291
165 -282 180 10 17 -13 9 -30 -10 -26 -29 -57 -38 -223 -65 -84 -14 -178 -36
-210 -48 -55 -22 -58 -25 -65 -67 -9 -56 -29 -85 -78 -117 -35 -23 -110 -49
-110 -37 0 2 12 15 28 28 15 13 24 26 21 29 -8 8 -107 -22 -150 -46 -21 -11
-43 -31 -50 -44 -7 -13 -16 -24 -21 -24 -11 0 -1 37 18 68 22 35 2 26 -41 -18
-21 -22 -43 -40 -48 -40 -5 0 -7 21 -4 48 5 41 12 53 59 94 58 52 58 55 4 33
-20 -9 -36 -11 -36 -5 0 23 125 98 260 157 80 35 190 91 245 125 140 87 251
143 315 161 94 26 149 37 185 37 40 0 215 -64 313 -114 51 -26 83 -35 134 -39
164 -11 276 -85 348 -229 42 -83 50 -85 26 -4 -14 47 -14 47 10 57 14 5 29 9
33 9 20 0 33 34 45 116 16 99 36 161 66 203 25 36 98 71 147 71 28 0 34 3 23
10 -8 5 -26 10 -40 10 -20 0 -22 2 -10 11 9 6 53 8 105 6 84 -3 96 -6 174 -48z
m2843 -1147 c14 -6 4 -36 -74 -222 -98 -236 -229 -558 -434 -1070 -169 -419
-240 -568 -332 -686 -175 -226 -428 -365 -735 -404 -48 -6 -344 -10 -717 -10
-696 0 -811 7 -990 57 -294 82 -576 263 -698 446 -14 20 -23 39 -21 41 2 2 74
39 159 82 171 86 451 235 579 307 l43 25 81 -40 c44 -22 114 -49 156 -61 74
-21 92 -22 711 -22 l635 0 65 23 c115 40 192 116 265 262 78 156 198 448 189
462 -3 4 -266 8 -584 8 l-580 0 57 93 c31 50 139 229 240 397 102 168 190 308
196 312 15 10 1766 9 1789 0z m4255 -5744 c-3 -8 -6 -5 -6 6 -1 11 2 17 5 13
3 -3 4 -12 1 -19z m-12417 -98 c0 -11 -2 -20 -4 -20 -2 0 -6 9 -9 20 -3 11 -1
20 4 20 5 0 9 -9 9 -20z m12391 -7 c-12 -20 -14 -14 -5 12 4 9 9 14 11 11 3
-2 0 -13 -6 -23z m-70 -214 c-6 -16 -10 -18 -10 -7 -1 22 12 55 16 42 2 -6 -1
-22 -6 -35z m-12211 -94 c0 -5 -5 -3 -10 5 -5 8 -10 20 -10 25 0 6 5 3 10 -5
5 -8 10 -19 10 -25z m12150 -55 c0 -5 -5 -10 -11 -10 -5 0 -7 5 -4 10 3 6 8
10 11 10 2 0 4 -4 4 -10z m-12071 -110 c11 -24 11 -24 -3 -6 -9 11 -16 24 -16
30 0 12 5 7 19 -24z m45 -76 c3 -8 2 -12 -4 -9 -6 3 -10 10 -10 16 0 14 7 11
14 -7z m46 -75 c0 -6 -4 -7 -10 -4 -5 3 -10 11 -10 16 0 6 5 7 10 4 6 -3 10
-11 10 -16z m11820 -22 c0 -2 -11 -18 -25 -37 -14 -19 -25 -30 -25 -26 0 9 39
66 46 66 2 0 4 -1 4 -3z m-11786 -33 c5 -14 4 -15 -9 -4 -17 14 -19 20 -6 20
5 0 12 -7 15 -16z m141 -192 c-6 -7 -35 18 -35 31 0 5 9 2 20 -8 11 -10 18
-20 15 -23z m11500 19 c-3 -6 -11 -11 -17 -11 -6 0 -6 6 2 15 14 17 26 13 15
-4z m-11435 -86 c13 -14 21 -27 18 -30 -2 -3 -17 9 -33 25 -16 17 -24 30 -19
30 6 0 21 -11 34 -25z m11380 22 c0 -2 -16 -19 -37 -38 -37 -35 -37 -23 0 19
18 19 37 29 37 19z m-11190 -219 c0 -13 -4 -10 -45 34 l-40 41 43 -33 c23 -18
42 -37 42 -42z m11010 37 c-18 -19 -36 -32 -39 -30 -4 5 58 64 68 65 3 0 -10
-16 -29 -35z m-10934 -103 c-4 -3 -14 2 -24 12 -16 18 -16 18 6 6 13 -6 21
-14 18 -18z m10829 8 c-10 -11 -21 -18 -23 -15 -3 3 3 12 14 20 27 20 30 18 9
-5z m-10765 -55 c19 -14 30 -25 24 -25 -10 0 -73 49 -63 50 3 0 20 -11 39 -25z
m10700 11 c0 -2 -8 -10 -17 -17 -16 -13 -17 -12 -4 4 13 16 21 21 21 13z m-90
-76 c-24 -15 -36 -11 -14 4 10 8 21 12 24 10 2 -3 -2 -9 -10 -14z m-10440 -50
c8 -5 11 -10 5 -10 -5 0 -21 10 -35 21 -24 20 -5 13 30 -11z m10380 15 c-7 -8
-18 -15 -24 -15 -6 0 -2 7 8 15 25 19 32 19 16 0z m-10290 -71 c0 -2 -9 0 -20
6 -11 6 -20 13 -20 16 0 2 9 0 20 -6 11 -6 20 -13 20 -16z m10196 11 c-11 -8
-25 -15 -30 -15 -6 0 -2 7 8 15 11 8 25 15 30 15 6 0 2 -7 -8 -15z m-10132
-40 c11 -8 15 -15 10 -15 -6 0 -19 7 -30 15 -10 8 -14 14 -9 14 6 0 19 -6 29
-14z m10075 11 c-2 -2 -15 -9 -29 -16 -23 -12 -24 -12 -11 3 7 10 20 17 29 17
8 0 13 -2 11 -4z m-9989 -56 c8 -5 11 -10 5 -10 -5 0 -17 5 -25 10 -8 5 -10
10 -5 10 6 0 17 -5 25 -10z m9860 -10 c-8 -5 -19 -10 -25 -10 -5 0 -3 5 5 10
8 5 20 10 25 10 6 0 3 -5 -5 -10z m-9800 -15 c14 -8 21 -14 15 -14 -5 0 -21 6
-35 14 -14 8 -20 14 -15 14 6 0 21 -6 35 -14z m9750 -5 c-8 -5 -19 -10 -25
-10 -5 0 -3 5 5 10 8 5 20 10 25 10 6 0 3 -5 -5 -10z m-100 -40 c0 -5 -8 -10
-17 -10 -15 0 -16 2 -3 10 19 12 20 12 20 0z m-9455 -30 c8 -13 -5 -13 -25 0
-13 8 -13 10 2 10 9 0 20 -4 23 -10z m65 -20 c13 -8 13 -10 -2 -10 -9 0 -20 5
-23 10 -8 13 5 13 25 0z m9235 0 c-3 -5 -12 -10 -18 -10 -7 0 -6 4 3 10 19 12
23 12 15 0z m-9160 -20 c25 -11 -1 -11 -35 0 -20 6 -21 8 -5 8 11 0 29 -3 40
-8z m9122 4 c-3 -3 -12 -4 -19 -1 -8 3 -5 6 6 6 11 1 17 -2 13 -5z m-40 -10
c-3 -3 -12 -4 -19 -1 -8 3 -5 6 6 6 11 1 17 -2 13 -5z m-130 -30 c-3 -3 -12
-4 -19 -1 -8 3 -5 6 6 6 11 1 17 -2 13 -5z m-8690 -20 c-3 -3 -12 -4 -19 -1
-8 3 -5 6 6 6 11 1 17 -2 13 -5z"/>
<path d="M5684 7503 c-21 -37 -79 -110 -129 -162 -49 -52 -83 -91 -75 -86 88
50 165 137 222 248 41 82 29 82 -18 0z"/>
<path d="M4160 7396 c0 -27 67 -161 93 -183 20 -18 20 -18 -1 18 -12 20 -38
70 -57 110 -19 41 -34 65 -35 55z"/>
<path d="M4365 5720 c-6 -9 7 -14 30 -11 6 1 -1 -8 -15 -19 -36 -28 -17 -25
30 6 42 28 54 42 20 24 -14 -7 -26 -8 -39 0 -13 7 -22 7 -26 0z"/>
<path d="M4340 5640 c-8 -11 -21 -18 -28 -15 -8 3 -4 -8 8 -25 25 -35 31 -37
48 -10 7 12 18 18 24 14 7 -4 2 7 -11 24 -12 18 -23 32 -24 32 -2 0 -9 -9 -17
-20z"/>
<path d="M4463 5533 c16 -19 16 -22 2 -36 -14 -14 -13 -17 7 -31 11 -8 26 -12
31 -9 6 3 7 1 4 -4 -6 -10 35 -42 91 -72 42 -22 22 -3 -29 29 -43 26 -50 35
-46 56 3 20 -4 31 -37 56 -22 18 -33 23 -23 11z"/>
</g>
</svg>
